Coordinates
version=1
nRows=14
nColumns=33
inDegrees=yes

Units are S.I. units (second, meters, Newtons, ...)
Angles are in degrees.

endheader
time	ground_thorax_rot_x	ground_thorax_rot_y	ground_thorax_rot_z	ground_thorax_tx	ground_thorax_ty	ground_thorax_tz	clav_prot_r	clav_elev_r	scapula_abduction_r	scapula_elevation_r	scapula_upward_rot_r	scapula_winging_r	shoulder_elv_r	plane_of_elev_r	axial_rot_r	elbow_flexion_r	pro_sup_r	wrist_flex_r	wrist_dev_r	clav_prot_l	clav_elev_l	scapula_abduction_l	scapula_elevation_l	scapula_upward_rot_l	scapula_winging_l	shoulder_elv_l	plane_of_elev_l	axial_rot_l	elbow_flexion_l	pro_sup_l	wrist_flex_l	wrist_dev_l
      6.38000000	     40.12456997	     11.01723073	     11.43173431	   -101.73603910	    784.82977465	     17.46860485	     17.98096526	     39.03695990	     43.71158679	     42.17215420	    -32.53994015	  -2600.77097290	  -3713.33798215	    144.05091543	    179.99999979	   1449.47016544	     51.75013377	     22.21856169	     12.12216725	      4.11990262	    -45.00000000	    -41.70967569	     45.00000000	    -28.73386012	    806.42123049	  -2261.74204070	    138.60109682	    155.85238013	    371.55871299	     21.61852220	      7.35461276	    -17.47793881
      6.39000000	     40.24472249	     11.46240173	     11.92026428	   -103.57528451	    785.60104966	     17.25987638	     18.14022345	     39.27396039	     43.32700503	     42.76881386	    -33.52854614	  -2600.45976860	  -3713.02752816	    143.86436756	    179.99999979	   1449.72303933	     51.76878388	     22.25731332	     11.98443015	      4.19349060	    -45.00000000	    -41.11873861	     45.00000000	    -30.10186330	    806.36282633	  -2261.34699274	    138.48161011	    155.84841823	    371.76909479	     21.39650814	      7.34504047	    -17.52642920
      6.40000000	     37.68861774	     12.93220799	     16.52389980	    -99.37719891	    778.12464653	      7.29262173	     17.78269496	     38.16909698	     42.03192086	     43.83455355	    -38.01273920	  -2599.00883815	  -3712.12456976	    143.21136434	    179.99999979	   1450.04470674	     51.97154663	     22.70203388	     11.96281988	      4.73681882	    -45.00000000	    -39.65679898	     45.00000000	    -33.77770277	    807.34587197	  -2259.81733485	    137.65338864	    158.07426024	    368.76220634	     23.48184197	      7.45160631	    -19.20297837
      6.41000000	     37.81367141	     12.29245973	     15.60029208	   -101.39430818	    779.04693508	      7.03251716	     17.49558155	     38.35439326	     42.18908195	     43.73725430	    -37.33348167	  -2599.22387051	  -3712.00067782	    143.26439666	    179.99999979	   1450.22851488	     51.96037766	     22.71969066	     11.87206106	      4.42108147	    -45.00000000	    -40.26874534	     45.00000000	    -32.38386571	    807.71529988	  -2259.76697302	    137.66819644	    158.85683100	    368.90813664	     24.01803784	      7.43081456	    -19.30151201
      6.42000000	     37.95835633	     12.33864086	     15.45908816	   -103.49032414	    780.02578333	      6.78447970	     17.56090392	     38.69665380	     41.98070094	     44.13173975	    -37.57733477	  -2599.11326243	  -3711.72502707	    143.17266114	    179.99999979	   1450.40817675	     51.97702022	     22.70692301	     11.74064150	      4.58919408	    -45.00000000	    -40.35489883	     45.00000000	    -32.26175937	    807.97584262	  -2259.62132576	    137.65586402	    158.76671016	    369.09984013	     24.54812108	      7.32001572	    -19.39897217
      6.43000000	     38.05426916	     12.56654068	     15.59734786	   -105.65929596	    781.05485936	      6.54972328	     17.58777472	     38.88658998	     41.77046324	     44.48345003	    -38.08629347	  -2599.01362107	  -3711.47725737	    143.08619574	    179.99999979	   1450.56503764	     51.98692647	     22.70891909	     11.62710456	      4.63417077	    -45.00000000	    -40.11229496	     45.00000000	    -32.70791516	    808.11972059	  -2259.46264735	    137.62747407	    158.72713949	    369.24788924	     24.91511826	      7.20182807	    -19.47716820
      6.44000000	     38.17648259	     12.73021824	     15.65145696	   -107.89869257	    782.12883513	      6.32833669	     17.54302477	     39.04069260	     41.62129381	     44.85402208	    -38.48072655	  -2598.97046055	  -3711.23509985	    143.02497042	    179.99999979	   1450.69289262	     52.00765935	     22.71640609	     11.53059255	      4.62505870	    -45.00000000	    -39.94781495	     45.00000000	    -33.03804463	    808.29171687	  -2259.22414506	    137.63689625	    158.69566754	    369.41844441	     25.15178947	      7.09333208	    -19.55736451
      6.45000000	     38.25723222	     12.85023969	     15.76121289	   -110.20339355	    783.24103176	      6.11993635	     17.44349110	     39.02869214	     41.58396465	     45.00000000	    -38.74352577	  -2599.08103641	  -3711.04331648	    142.99730294	    179.99999979	   1450.80682862	     52.01478363	     22.75721105	     11.47917098	      4.56601448	    -45.00000000	    -39.73020075	     45.00000000	    -33.28489343	    808.44795712	  -2259.06827184	    137.65532675	    158.75021731	    369.41682002	     25.29496867	      6.97202161	    -19.58431462
      6.46000000	     38.28526228	     12.97145472	     15.76373605	   -112.57076461	    784.38713187	      5.92290418	     17.38466287	     38.97272742	     41.55422598	     45.00000000	    -38.97503488	  -2599.30533752	  -3710.78130848	    142.96083350	    179.99999979	   1450.86396595	     52.01270213	     22.76834033	     11.41796637	      4.59911738	    -45.00000000	    -39.61991265	     45.00000000	    -33.50901666	    808.67579560	  -2258.75807067	    137.58024730	    158.71702938	    369.56634826	     25.37338717	      6.90091074	    -19.65164005
      6.47000000	     38.35268835	     12.94809646	     15.66969864	   -115.00530016	    785.56876183	      5.73678959	     17.23325409	     38.93023315	     41.54867179	     45.00000000	    -38.98113773	  -2599.54956718	  -3710.61615560	    142.95349520	    179.99999979	   1450.97441401	     51.99876435	     22.81407954	     11.37592326	      4.54607899	    -45.00000000	    -39.51709544	     45.00000000	    -33.42416567	    808.94070717	  -2258.58600765	    137.59291116	    158.75888991	    369.60020880	     25.39705989	      6.80659399	    -19.67925769
      6.48000000	     38.35802609	     13.06626196	     15.64423867	   -117.50005506	    786.78174326	      5.55896044	     17.25933641	     38.91941089	     41.42381287	     45.00000000	    -39.26489280	  -2599.72103786	  -3710.31164153	    142.86902102	    179.99999979	   1451.09282305	     51.94815936	     22.77979307	     11.27547243	      4.70465255	    -45.00000000	    -39.55618435	     45.00000000	    -33.61443584	    809.25051206	  -2258.22447558	    137.54689879	    158.69575713	    369.84244959	     25.37157663	      6.78707689	    -19.75763889
      6.49000000	     38.41952843	     13.03150410	     15.52582661	   -120.05714815	    788.02717679	      5.38465196	     17.08249214	     38.86184005	     41.46177224	     45.00000000	    -39.23037773	  -2599.95490198	  -3710.16500604	    142.91876915	    179.99999979	   1451.15068908	     51.89598781	     22.80411698	     11.23576623	      4.63291808	    -45.00000000	    -39.52566527	     45.00000000	    -33.40741593	    809.51073670	  -2258.11343395	    137.60262814	    158.75583403	    369.79933141	     25.30889898	      6.70813624	    -19.75755663
      6.50000000	     38.49703016	     12.99288098	     15.40390000	   -122.67038937	    789.30221309	      5.21069388	     16.94991206	     38.81890590	     41.45650747	     45.00000000	    -39.17588524	  -2600.20571841	  -3710.01700903	    142.94013364	    179.99999979	   1451.25407004	     51.82252230	     22.82984465	     11.18309114	      4.64419768	    -45.00000000	    -39.48418495	     45.00000000	    -33.28587536	    809.80390220	  -2257.97228091	    137.61784902	    158.79704121	    369.84685775	     25.19871129	      6.64564488	    -19.77639837
      6.51000000	     38.35263630	     13.50781665	     15.95221719	   -125.35693937	    790.61077862	      5.02482868	     17.22051659	     38.42725960	     41.28878094	     45.00000000	    -40.48355214	  -2600.36689505	  -3709.43748862	    142.59654485	    179.99999979	   1451.36365211	     51.60005597	     22.67561156	     11.00271054	      5.23538716	    -45.00000000	    -39.25615854	     45.00000000	    -34.42950071	    810.20099033	  -2257.41988070	    137.37328715	    158.52004696	    369.99057074	     24.97962739	      6.73506595	    -19.82865583
